<svg width="70" height="70" viewBox="0 0 70 70" fill="none" xmlns="http://www.w3.org/2000/svg">
<path d="M40.1624 53.1957L34.3371 59.0214C34.2599 59.0974 34.1985 59.1879 34.1565 59.2877C34.1145 59.3875 34.0926 59.4946 34.0922 59.6029C34.0917 59.7112 34.1128 59.8185 34.154 59.9186C34.1953 60.0187 34.2559 60.1097 34.3325 60.1862C34.4091 60.2628 34.5001 60.3234 34.6002 60.3647C34.7003 60.4059 34.8076 60.4269 34.9159 60.4264C35.0242 60.426 35.1313 60.4041 35.2311 60.362C35.3309 60.32 35.4214 60.2586 35.4973 60.1814L41.3226 54.3561C41.4764 54.2022 41.5629 53.9935 41.5628 53.776C41.5628 53.5584 41.4764 53.3498 41.3225 53.1959C41.1687 53.0421 40.96 52.9557 40.7425 52.9557C40.5249 52.9557 40.3162 53.0421 40.1624 53.196V53.1957Z" fill="#AE9273"/>
<path d="M45.723 58.7564L43.0752 61.4044C42.9973 61.4802 42.9353 61.5707 42.8927 61.6707C42.8501 61.7706 42.8278 61.8781 42.827 61.9867C42.8263 62.0954 42.8472 62.2031 42.8884 62.3036C42.9297 62.4042 42.9905 62.4955 43.0673 62.5723C43.1442 62.6492 43.2355 62.7099 43.336 62.7512C43.4366 62.7924 43.5443 62.8133 43.653 62.8125C43.7616 62.8118 43.869 62.7895 43.969 62.7469C44.069 62.7042 44.1595 62.6422 44.2352 62.5643L46.8831 59.9165C47.0348 59.7622 47.1195 59.5542 47.1186 59.3378C47.1177 59.1214 47.0314 58.9142 46.8784 58.7611C46.7253 58.6081 46.5181 58.5218 46.3017 58.5209C46.0853 58.52 45.8773 58.6047 45.723 58.7564Z" fill="#AE9273"/>
<path d="M35.7793 47.6528C35.6301 47.4945 35.4241 47.4019 35.2067 47.3955C34.9892 47.3891 34.7781 47.4693 34.6198 47.6185L21.6263 59.8627C21.4689 60.0121 21.3771 60.2179 21.371 60.4348C21.365 60.6518 21.4452 60.8623 21.5941 61.0203C21.7429 61.1783 21.9483 61.2708 22.1653 61.2776C22.3822 61.2844 22.593 61.205 22.7515 61.0567L35.745 48.8123C35.9033 48.6631 35.9958 48.4571 36.0023 48.2396C36.0087 48.0222 35.9285 47.8111 35.7793 47.6528Z" fill="#AE9273"/>
<path d="M30.2148 42.0887C30.1405 42.0107 30.0515 41.9482 29.9529 41.9046C29.8544 41.8611 29.7483 41.8374 29.6406 41.8348C29.5329 41.8323 29.4257 41.851 29.3253 41.8899C29.2248 41.9287 29.133 41.987 29.055 42.0614L15.9124 54.586C15.7571 54.7366 15.6675 54.9425 15.6632 55.1587C15.659 55.375 15.7403 55.5843 15.8895 55.7409C16.0388 55.8975 16.2438 55.9888 16.4601 55.995C16.6763 56.0011 16.8863 55.9216 17.0441 55.7737L30.1875 43.2486C30.2654 43.1743 30.328 43.0853 30.3716 42.9867C30.4151 42.8882 30.4389 42.782 30.4414 42.6743C30.4439 42.5666 30.4252 42.4594 30.3864 42.359C30.3475 42.2585 30.2892 42.1666 30.2148 42.0887Z" fill="#AE9273"/>
<path d="M24.6577 36.5312C24.5085 36.3729 24.3025 36.2804 24.0851 36.2739C23.8676 36.2675 23.6565 36.3477 23.4982 36.4969L10.5049 48.7415C10.4251 48.8151 10.3606 48.9037 10.3153 49.0023C10.27 49.1009 10.2447 49.2075 10.2409 49.3159C10.237 49.4243 10.2548 49.5324 10.293 49.634C10.3312 49.7355 10.3892 49.8285 10.4636 49.9074C10.5381 49.9864 10.6274 50.0498 10.7265 50.094C10.8256 50.1382 10.9325 50.1623 11.0409 50.1649C11.1494 50.1676 11.2573 50.1486 11.3584 50.1092C11.4595 50.0699 11.5518 50.0108 11.6299 49.9355L24.6233 37.691C24.7017 37.6171 24.7648 37.5285 24.809 37.4302C24.8532 37.3319 24.8775 37.2259 24.8807 37.1182C24.8839 37.0105 24.8659 36.9032 24.8276 36.8025C24.7894 36.7018 24.7316 36.6096 24.6577 36.5312Z" fill="#AE9273"/>
<path d="M11.5653 38.4685C11.7192 38.6224 11.9278 38.7088 12.1453 38.7088C12.3629 38.7088 12.5715 38.6224 12.7254 38.4685L19.0803 32.1136C19.2321 31.9593 19.3167 31.7513 19.3158 31.5349C19.3149 31.3185 19.2285 31.1112 19.0755 30.9582C18.9225 30.8052 18.7152 30.7189 18.4988 30.718C18.2824 30.7172 18.0744 30.8019 17.9201 30.9536L11.5653 37.3085C11.4115 37.4623 11.3251 37.6709 11.3251 37.8885C11.3251 38.106 11.4115 38.3147 11.5653 38.4685Z" fill="#AE9273"/>
<path d="M13.5198 26.5529C13.5976 26.4771 13.6597 26.3866 13.7023 26.2867C13.7448 26.1867 13.7672 26.0793 13.7679 25.9706C13.7686 25.8619 13.7478 25.7542 13.7065 25.6537C13.6653 25.5532 13.6045 25.4618 13.5276 25.385C13.4508 25.3082 13.3594 25.2474 13.2589 25.2061C13.1584 25.1649 13.0506 25.1441 12.942 25.1448C12.8333 25.1455 12.7259 25.1679 12.6259 25.2105C12.526 25.2531 12.4355 25.3151 12.3597 25.393L9.18221 28.5705C9.03045 28.7247 8.94578 28.9327 8.94666 29.1491C8.94754 29.3655 9.0339 29.5728 9.18692 29.7258C9.33994 29.8789 9.54723 29.9652 9.76363 29.9661C9.98003 29.967 10.188 29.8823 10.3423 29.7305L13.5198 26.5529Z" fill="#AE9273"/>
<path d="M67.8456 59.2583L64.6523 56.4411C64.6402 56.1669 64.5989 55.8949 64.5292 55.6295C64.1241 54.1119 62.8309 52.9748 60.6856 52.2501C60.4952 52.1858 60.4499 52.1459 60.4422 51.9008C60.4285 51.5028 60.5947 50.888 60.7703 50.2368C61.4118 47.8539 62.4851 43.8657 56.6647 41.6158C53.8501 40.5278 51.5422 40.7369 49.8698 41.2795L48.0651 39.4748C48.6255 38.0277 48.7761 36.4541 48.5005 34.927C48.2249 33.3999 47.5337 31.9782 46.5029 30.8183C45.472 29.6584 44.1414 28.805 42.6572 28.3519C41.173 27.8989 39.5926 27.8637 38.0897 28.2502C37.9842 27.7655 37.886 27.2639 37.7836 26.7375C37.4324 24.93 37.0693 23.061 36.2778 21.281C34.0676 16.3077 31.401 16.3077 29.0485 16.3077C26.84 16.3077 25.0954 16.3077 23.3181 12.3088C22.0284 9.40694 19.7753 7.99245 16.7881 8.19739L10.7067 2.1171C10.3503 1.76066 9.89623 1.51793 9.40186 1.41958C8.9075 1.32124 8.39507 1.37171 7.92938 1.5646C7.4637 1.7575 7.06568 2.08416 6.78565 2.50328C6.50563 2.92239 6.35618 3.41513 6.35621 3.91919V7.74472L5.7176 7.10597C5.36409 6.74499 4.90983 6.49916 4.41429 6.40063C3.91875 6.3021 3.405 6.35547 2.94029 6.55376C2.47151 6.74219 2.07054 7.06775 1.78986 7.48785C1.50918 7.90794 1.36186 8.40299 1.36721 8.90819V66.084C1.36786 66.7597 1.63655 67.4076 2.11432 67.8854C2.59209 68.3633 3.23992 68.6321 3.91564 68.6328H61.0914C61.5954 68.6328 62.0881 68.4833 62.5072 68.2033C62.9263 67.9233 63.2529 67.5253 63.4458 67.0596C63.6386 66.594 63.6891 66.0816 63.5908 65.5872C63.4925 65.0929 63.2498 64.6388 62.8934 64.2824L62.2546 63.6437H66.0804C66.5845 63.6437 67.0772 63.4942 67.4963 63.2142C67.9154 62.9342 68.242 62.5362 68.4349 62.0705C68.6277 61.6048 68.6782 61.0924 68.5798 60.5981C68.4814 60.1037 68.2387 59.6497 67.8822 59.2933C67.8709 59.2813 67.8585 59.2695 67.8456 59.2583ZM44.0127 30.8C45.1067 31.5488 45.9591 32.5998 46.4658 33.8249C46.9726 35.05 47.1118 36.3961 46.8664 37.6989C46.621 39.0017 46.0017 40.205 45.084 41.1617C44.1663 42.1185 42.9899 42.7875 41.6984 43.0869L39.9725 41.3608C40.0345 41.3693 40.0969 41.3738 40.1595 41.3745C40.4058 41.3745 40.6482 41.3137 40.8653 41.1976C41.0825 41.0815 41.2677 40.9137 41.4045 40.7089C41.5412 40.5042 41.6254 40.2689 41.6496 40.0238C41.6737 39.7788 41.6371 39.5316 41.5428 39.3041C41.5228 39.2556 41.4981 39.2091 41.4691 39.1654L40.8437 38.2199C40.7689 38.1068 40.6672 38.0141 40.5479 37.9499C40.4285 37.8858 40.295 37.8522 40.1595 37.8522C40.024 37.8522 39.8906 37.8858 39.7712 37.9499C39.6518 38.0141 39.5502 38.1068 39.4754 38.2199L38.8499 39.1654C38.8209 39.2091 38.7962 39.2556 38.7762 39.3041C38.6766 39.5434 38.641 39.8046 38.6728 40.0619L36.5428 37.9318C36.8004 37.9665 37.0625 37.9315 37.302 37.8302C37.3505 37.8101 37.3971 37.7854 37.441 37.7564L38.3864 37.1308C38.4994 37.056 38.5922 36.9544 38.6564 36.835C38.7205 36.7156 38.7541 36.5822 38.7541 36.4466C38.7541 36.3111 38.7205 36.1777 38.6564 36.0583C38.5922 35.9389 38.4994 35.8373 38.3864 35.7625L37.4409 35.1367C37.3972 35.1077 37.3507 35.083 37.3022 35.063C37.0287 34.949 36.7275 34.919 36.4369 34.9768C36.1462 35.0346 35.8794 35.1776 35.6704 35.3876C35.5092 35.5493 35.3872 35.7457 35.3137 35.9618C35.2402 36.178 35.2172 36.4081 35.2465 36.6345L33.5102 34.8982C33.7023 34.0829 34.0436 33.3103 34.5169 32.6193C35.5383 31.1232 37.1103 30.092 38.8895 29.7511C40.6687 29.4103 42.5106 29.7873 44.0127 30.8ZM21.8187 12.9758C24.029 17.9491 26.6956 17.9491 29.0482 17.9491C31.2567 17.9491 33.0012 17.9491 34.7785 21.948C35.494 23.5579 35.8391 25.3337 36.1731 27.0513C36.2919 27.6624 36.4055 28.2419 36.5333 28.8112C34.5146 29.7674 32.9549 31.4818 32.1933 33.5817L30.1093 31.4977C30.7611 29.9498 30.9368 28.2428 30.614 26.5946C30.2911 24.9464 29.4844 23.4318 28.2968 22.2442C27.1092 21.0566 25.5946 20.2498 23.9464 19.927C22.2982 19.6042 20.5912 19.7799 19.0433 20.4317L10.8171 12.2056C11.8061 11.5519 14.1803 10.1372 16.5718 9.86386C19.0466 9.58222 20.7624 10.5991 21.8187 12.9758ZM28.8518 30.1555C28.8508 28.7756 28.5135 27.4167 27.8689 26.1966C27.2244 24.9764 26.2921 23.9318 25.1529 23.1532C23.7482 22.1946 22.0853 21.686 20.3848 21.695C21.5599 21.3455 22.8076 21.3199 23.996 21.6209C25.1845 21.9218 26.2696 22.5381 27.1368 23.4047C28.004 24.2713 28.621 25.356 28.9228 26.5442C29.2246 27.7325 29.1998 28.9802 28.8512 30.1555H28.8518ZM24.2318 24.5108C25.5866 25.4223 26.5646 26.7945 26.9842 28.3726L22.1794 23.5677C22.9113 23.7655 23.605 24.0842 24.2318 24.5108ZM7.99683 3.91919C7.99671 3.73959 8.04986 3.56399 8.14956 3.4146C8.24926 3.26522 8.39103 3.14877 8.55693 3.07998C8.72284 3.01118 8.90542 2.99315 9.08157 3.02815C9.25773 3.06315 9.41954 3.14962 9.54654 3.27661L14.8117 8.5422C12.4306 9.18751 10.3697 10.5137 9.63473 11.0232L7.99683 9.38534V3.91919ZM61.9306 66.4316C61.8639 66.5989 61.748 66.7421 61.5983 66.8421C61.4486 66.9422 61.272 66.9945 61.092 66.9922H3.91564C3.67497 66.9919 3.44423 66.8962 3.27404 66.726C3.10386 66.5558 3.00812 66.3251 3.00783 66.0844V8.90819C3.00547 8.7281 3.05779 8.55152 3.15786 8.40177C3.25794 8.25202 3.40108 8.13614 3.56838 8.06942C3.68395 8.02268 3.80739 7.99845 3.93205 7.99806C4.04907 7.99805 4.16487 8.02185 4.2724 8.06802C4.37993 8.11418 4.47694 8.18173 4.55754 8.26657L6.5956 10.3041L6.59765 10.3061L61.7339 65.4425C61.8628 65.5682 61.9506 65.7299 61.9857 65.9065C62.0209 66.0831 62.0016 66.2662 61.9306 66.4316ZM66.9196 61.4425C66.853 61.6098 66.7371 61.753 66.5874 61.8531C66.4376 61.9531 66.2611 62.0054 66.081 62.0031H60.6145L43.0172 44.4063C44.7038 43.8046 46.1546 42.6809 47.159 41.1984C47.2011 41.1366 47.2399 41.0736 47.2801 41.0111L48.2548 41.9857C47.3375 42.4847 46.5188 43.1466 45.8388 43.939C45.7064 44.1103 45.6471 44.327 45.6738 44.5418C45.7006 44.7567 45.8111 44.9522 45.9815 45.0859C46.1518 45.2196 46.368 45.2805 46.5831 45.2553C46.7981 45.2302 46.9945 45.1211 47.1294 44.9518C47.161 44.9108 50.3638 40.9403 56.0723 43.1471C60.5165 44.8647 59.8395 47.3795 59.185 49.8113C58.9772 50.5834 58.7809 51.3126 58.8022 51.9545C58.8397 53.1174 59.5614 53.6028 60.1602 53.8053C61.7504 54.3423 62.6865 55.0974 62.9429 56.049C62.9933 56.2409 63.0191 56.4384 63.0194 56.6368C63.0016 56.7242 62.998 56.8139 63.0088 56.9024C62.8823 58.3379 61.7019 59.7059 61.6885 59.7212C61.6172 59.802 61.5625 59.8961 61.5275 59.998C61.4925 60.0999 61.478 60.2078 61.4847 60.3153C61.4914 60.4229 61.5192 60.528 61.5666 60.6249C61.6139 60.7217 61.6799 60.8082 61.7607 60.8795C61.8415 60.9508 61.9355 61.0055 62.0374 61.0405C62.1394 61.0755 62.2472 61.09 62.3548 61.0833C62.4623 61.0766 62.5675 61.0488 62.6643 61.0014C62.7611 60.9541 62.8476 60.8881 62.9189 60.8073C63.5321 60.079 64.0143 59.2499 64.344 58.3568L66.7394 60.4702C66.8622 60.5963 66.9449 60.756 66.977 60.9291C67.0091 61.1022 66.9891 61.2809 66.9196 61.4426V61.4425Z" fill="#AE9273"/>
<path d="M38.8499 33.7273L39.4754 34.6727C39.5501 34.7857 39.6518 34.8785 39.7711 34.9426C39.8905 35.0068 40.024 35.0404 40.1595 35.0404C40.295 35.0404 40.4285 35.0068 40.5478 34.9426C40.6672 34.8785 40.7688 34.7857 40.8436 34.6727L41.4691 33.7273C41.4982 33.6835 41.5228 33.6371 41.5428 33.5885C41.6567 33.3151 41.6867 33.0139 41.6289 32.7234C41.5712 32.4328 41.4283 32.166 41.2185 31.9569C40.9735 31.712 40.6512 31.5596 40.3065 31.5257C39.9618 31.4918 39.6159 31.5785 39.3279 31.771C39.0399 31.9635 38.8276 32.2498 38.7271 32.5813C38.6265 32.9128 38.644 33.2689 38.7766 33.5889C38.7964 33.6373 38.821 33.6837 38.8499 33.7273Z" fill="#AE9273"/>
<path d="M41.9326 37.1301L42.878 37.7557C42.9219 37.7847 42.9684 37.8094 43.017 37.8295C43.2445 37.9237 43.4917 37.9604 43.7368 37.9362C43.9818 37.912 44.2171 37.8278 44.4218 37.691C44.6265 37.5542 44.7943 37.369 44.9104 37.1519C45.0265 36.9347 45.0872 36.6923 45.0872 36.4461C45.0872 36.1999 45.0265 35.9574 44.9104 35.7403C44.7943 35.5231 44.6265 35.338 44.4218 35.2011C44.2171 35.0643 43.9818 34.9801 43.7368 34.956C43.4917 34.9318 43.2445 34.9684 43.017 35.0626C42.9685 35.0826 42.9221 35.1073 42.8784 35.1363L41.933 35.7618C41.82 35.8366 41.7272 35.9382 41.6631 36.0576C41.5989 36.177 41.5653 36.3104 41.5653 36.4459C41.5653 36.5815 41.5989 36.7149 41.6631 36.8343C41.7272 36.9537 41.82 37.0553 41.933 37.1301H41.9326Z" fill="#AE9273"/>
</svg>
