<svg width="70" height="70" viewBox="0 0 70 70" fill="none" xmlns="http://www.w3.org/2000/svg">
<path d="M13.1469 40.2115C12.7337 40.4401 12.6733 41.0194 12.6383 41.365C12.6092 41.6521 12.5799 42.0486 12.5516 42.543C12.5029 43.3891 12.4719 44.2577 12.4704 44.3356C12.4674 44.4699 12.4659 44.6028 12.4659 44.737C12.4659 50.4718 14.7195 56.4181 18.6491 61.0514C22.8074 65.9543 28.1647 68.6545 33.7323 68.6545C38.9384 68.6545 44.0107 66.2619 48.0524 61.9107L48.062 61.9002C50.1115 61.7953 52.7222 60.8495 54.9821 59.3778C57.1029 57.997 59.9047 55.5224 61.2091 51.5734C61.6828 50.1388 61.9779 48.0556 60.6931 46.2784C59.4001 44.4893 57.0138 43.7189 54.9646 43.5641C54.951 43.2595 54.9341 42.8987 54.9139 42.5431C54.889 42.1101 54.8636 41.7525 54.838 41.4767C55.4986 41.1224 56.0589 40.6069 56.467 39.9781C57.6529 38.2608 58.1288 35.8036 57.7088 33.5649C57.2303 31.018 54.9043 29.0819 53.6903 28.2269C53.7389 27.9356 53.768 27.6413 53.7771 27.3461C53.881 24.3747 52.373 22.4063 49.6054 21.8305C49.7054 21.1906 49.6665 20.5367 49.4913 19.9132C49.3162 19.2896 49.0088 18.7112 48.5901 18.217C48.019 17.5223 47.0403 16.6967 44.8949 16.732C46.0429 15.5022 46.6817 13.8827 46.6825 12.2003C46.6874 11.3948 46.5319 10.5965 46.225 9.85175C45.9182 9.10702 45.4662 8.43083 44.8953 7.86261C44.4507 7.42382 43.9451 7.0516 43.394 6.75751C43.3033 5.2089 44.1258 4.29931 46.7198 2.93472C46.9124 2.83343 47.0568 2.65979 47.1213 2.45201C47.1859 2.24422 47.1652 2.01931 47.0639 1.82675C46.9626 1.63419 46.789 1.48976 46.5812 1.42522C46.3734 1.36069 46.1485 1.38134 45.956 1.48263C43.4766 2.78775 41.9361 4.03121 41.7629 6.12847C41.1681 5.97934 40.5569 5.90562 39.9437 5.90904C36.8594 5.9264 34.7676 7.54802 33.7285 9.67509C33.6355 9.1788 33.5609 8.71587 33.4947 8.30517C33.3367 7.3249 33.2322 6.67726 33.0136 6.2697C32.9362 6.12519 32.6249 5.66499 31.8734 5.8158C30.2327 6.14392 26.9697 8.77945 25.2452 10.556C22.8642 13.0087 19.9233 16.9818 19.4358 21.9784C19.4023 22.6514 19.4593 23.3259 19.6055 23.9837C19.622 24.0559 19.6418 24.1264 19.6649 24.1952C16.9032 24.4886 15.038 26.8448 14.8114 29.0358C14.6903 30.2116 15.0087 31.1503 15.5624 31.8708C14.7383 32.4059 13.9788 33.0344 13.299 33.7439C12.5531 34.5512 11.7865 36.6735 12.2873 38.5582C12.4469 39.1665 12.7406 39.7314 13.1469 40.2115ZM33.7323 67.0138C28.6539 67.0138 23.7418 64.5194 19.9002 59.9902C16.2183 55.6488 14.1065 50.0893 14.1065 44.737C14.1065 44.6151 14.1079 44.4945 14.1106 44.3708C14.118 44.0362 14.1809 42.5851 14.2491 41.7538H53.2159C53.2842 42.5844 53.3467 44.0362 53.3539 44.3724C53.3567 44.4945 53.358 44.6151 53.358 44.737C53.358 50.2076 51.0737 56.0331 47.2377 60.3684L47.0821 60.5408C43.3162 64.7149 38.5751 67.0138 33.7323 67.0138ZM59.3633 47.2395C60.0689 48.2154 60.1657 49.5004 59.6504 51.0589C58.4952 54.5558 55.9863 56.7653 54.0859 58.003C52.731 58.897 51.24 59.5653 49.6711 59.982C52.9315 55.6863 54.8769 50.331 54.9914 45.2147C56.5742 45.3622 58.4284 45.9459 59.3633 47.2395ZM56.0957 33.8677C56.4327 35.6641 56.0483 37.6968 55.1164 39.0461C54.712 39.6318 54.24 40.0156 53.8126 40.1132H39.9902C42.4838 39.2316 44.8434 38.0093 47.002 36.4811C50.0508 34.2936 51.8319 31.9872 52.7893 30.4367C52.9178 30.2284 53.0273 30.0368 53.1238 29.8538C54.142 30.6401 55.7714 32.1374 56.0957 33.8677ZM39.9529 7.54966H39.9852C41.427 7.54966 42.7935 8.08697 43.7382 9.02623C44.1579 9.44037 44.4897 9.935 44.7137 10.4805C44.9376 11.0259 45.0492 11.611 45.0416 12.2006C45.0416 15.0084 42.7063 17.2927 39.8359 17.2927V17.2985C38.0816 17.3003 37.1856 16.8627 36.7295 16.4099C35.7492 15.4353 35.0811 14.2128 34.609 12.9624C34.628 9.26466 37.3876 7.56402 39.9529 7.54966ZM16.4438 29.204C16.6028 27.6609 18.0169 25.9252 20.024 25.8116C20.3573 25.7927 20.7186 25.7443 21.1012 25.6932C21.2142 25.6781 21.3289 25.6629 21.4453 25.6477C21.522 25.6507 21.5987 25.6451 21.6742 25.6309L21.6886 25.6288C21.7382 25.6242 21.7873 25.6151 21.8352 25.6015C21.8776 25.5967 21.9202 25.5922 21.9632 25.5878C33.9958 24.3482 36.7894 22.7069 37.0141 21.5482C37.0522 21.3526 37.0178 21.1499 36.9174 20.9779C36.817 20.8059 36.6575 20.6762 36.4685 20.6132C36.2795 20.5502 36.0741 20.5581 35.8905 20.6354C35.7069 20.7127 35.5578 20.8542 35.4709 21.0334C35.2596 21.2442 33.3644 22.7639 21.795 23.9558C21.6974 23.9659 21.601 23.9767 21.5065 23.9878C21.4306 23.9541 21.3637 23.903 21.3112 23.8386C21.2587 23.7743 21.2221 23.6985 21.2043 23.6174C21.0976 23.1321 21.0519 22.6353 21.0684 22.1386C21.513 17.5821 24.2583 13.9127 26.4824 11.6369C28.5575 9.51404 30.6988 8.09585 31.7107 7.60845C31.7666 7.8998 31.8236 8.25335 31.8741 8.56685C32.2569 10.941 32.8973 14.9144 35.5723 17.5736C36.9823 18.9754 39.5129 19.2972 43.3081 18.558C45.3846 18.153 46.585 18.3632 47.3218 19.2599C48.0315 20.1234 48.1961 21.1056 47.825 22.262C47.322 23.8294 43.1389 26.8895 36.3772 29.4733C29.3997 32.1394 22.769 33.0708 18.6398 31.9638C16.5398 31.3998 16.3625 29.9927 16.4438 29.204ZM14.5048 34.8575C15.2514 34.0484 16.2548 33.3646 16.8588 32.9881C17.2846 33.2332 17.7408 33.4213 18.2156 33.5476C19.6541 33.9121 21.1341 34.0872 22.6179 34.0685C24.1556 34.0581 25.6901 33.9284 27.2077 33.6806C30.2669 33.2 33.6402 32.2748 36.963 31.0051C42.0878 29.0466 47.5892 26.0215 49.0952 23.4023C51.2184 23.7668 52.2153 25.043 52.1367 27.2888C52.1304 27.6513 52.077 28.0114 51.9779 28.3602C51.8385 28.7896 51.6418 29.1982 51.3931 29.5751C50.5147 30.9969 48.8738 33.1191 46.0456 35.1481C42.6839 37.5598 38.5014 39.2297 33.6142 40.1132H15.9228C14.8126 39.7359 14.1228 39.0719 13.8741 38.1369C13.5268 36.8321 14.1084 35.2863 14.5048 34.8575Z" fill="#AE9273"/>
<path d="M40.722 47.0824C38.6795 45.4523 35.4874 45.6656 33.4895 47.4379C32.62 46.7377 31.3977 45.9114 29.7119 45.9114C28.9388 45.9092 28.1744 46.0745 27.4712 46.3959C26.768 46.7172 26.1428 47.187 25.6385 47.773C23.7225 50.0093 24.041 52.9294 26.4692 55.3968L27.0528 56.0275L32.7988 61.4168C33.0598 61.6582 33.4039 61.7894 33.7593 61.7829C34.1147 61.7764 34.4538 61.6327 34.7058 61.3819L41.1306 54.8996L41.4939 54.4663C41.9367 53.9345 42.2685 53.3195 42.4698 52.6574C42.671 51.9953 42.7376 51.2996 42.6656 50.6114C42.5936 49.9232 42.3845 49.2563 42.0506 48.6502C41.7167 48.0441 41.2648 47.511 40.7215 47.0824H40.722ZM40.2313 53.4192L39.9401 53.7707L33.7285 60.0385L28.2367 54.8926L27.6639 54.2737L27.6458 54.2548C25.8088 52.3931 25.531 50.42 26.8836 48.8416C27.2339 48.4353 27.6681 48.1098 28.1562 47.8873C28.6444 47.6648 29.1749 47.5507 29.7113 47.5527C31.0736 47.5527 32.0471 48.3671 32.8295 49.0215C32.8972 49.0782 32.9628 49.1329 33.0265 49.1855L33.6578 49.7064L34.1797 49.0759C35.4914 47.4934 38.1732 47.1482 39.6982 48.365C40.1201 48.6977 40.4612 49.1217 40.6958 49.6051C40.9304 50.0886 41.0525 50.6189 41.0528 51.1562C41.0545 51.9838 40.7635 52.7854 40.2313 53.4192Z" fill="#AE9273"/>
</svg>
