<svg width="70" height="70" viewBox="0 0 70 70" fill="none" xmlns="http://www.w3.org/2000/svg">
<path d="M34.6749 30.9165C36.4522 32.3412 38.4073 33.0796 40.3791 33.0795C40.6733 33.0795 40.9673 33.0631 41.2597 33.0303C44.2531 32.6952 46.8624 30.6968 48.6067 27.4031C50.2962 24.2131 50.9779 20.1623 50.5265 15.9966C49.9643 10.8081 47.6788 6.14767 44.4126 3.52978C42.3709 1.8934 40.0939 1.16209 37.828 1.41611C34.8339 1.75135 32.2253 3.74976 30.481 7.04332C28.7916 10.2332 28.1098 14.2842 28.5612 18.45C29.1233 23.6387 31.4088 28.2987 34.6749 30.9165ZM48.8954 16.1738C49.7085 23.6764 46.5113 30.2683 41.6935 31.299L39.9048 26.6726C38.8753 24.0093 38.8413 21.064 39.8091 18.3777L40.3249 16.9452C41.646 13.2801 41.5835 9.2588 40.1494 5.63648L39.1152 3.02338C40.5759 3.12017 42.0341 3.7257 43.3867 4.80988C46.3203 7.16103 48.3792 11.409 48.8954 16.1738ZM37.3994 3.14683L38.6231 6.23982C39.9103 9.49068 39.9662 13.0997 38.7804 16.3889L38.2646 17.8213C37.1632 20.8794 37.2021 24.2321 38.374 27.2639L39.9825 31.4238C38.5187 31.3291 37.0567 30.7231 35.7007 29.6364C32.7674 27.2848 30.708 23.0375 30.1919 18.2733C29.379 10.7678 32.5789 4.17386 37.3994 3.14683Z" fill="#AE9273"/>
<path d="M44.6394 39.1823C41.4329 41.8757 39.2526 46.5881 38.8083 51.7878C38.4512 55.9631 39.2243 59.997 40.9854 63.1468C42.8038 66.3991 45.4578 68.3364 48.4582 68.6019C48.6907 68.6224 48.9231 68.6327 49.1555 68.6328C51.1893 68.6328 53.1939 67.8467 54.9925 66.3359C58.1987 63.6426 60.3792 58.9301 60.8236 53.7298C61.1807 49.5545 60.4075 45.5206 58.6465 42.3709C56.8281 39.1186 54.1741 37.1813 51.1737 36.9158C48.9029 36.7159 46.6432 37.4992 44.6394 39.1823ZM40.4431 51.9284C40.8516 47.1528 42.8147 42.8575 45.6944 40.4387C47.171 39.1985 48.7907 38.5461 50.4142 38.5281L51.0217 41.8094C51.6613 45.2449 51.0234 48.7957 49.2279 51.7937L48.4468 53.0962C46.7779 55.8839 46.1719 59.1805 46.7405 62.3794L47.5184 66.7746C42.9323 65.5397 39.8207 59.204 40.4431 51.9284ZM59.1887 53.5899C58.7802 58.3656 56.817 62.6608 53.9371 65.0797C52.4624 66.3186 50.8437 66.9703 49.2229 66.99L48.3559 62.0933C47.8564 59.2837 48.3884 56.3883 49.8538 53.9398L50.6349 52.6367C52.6362 49.2958 53.3474 45.3386 52.6348 41.5098L52.1231 38.7461C56.704 39.9878 59.8106 46.3195 59.1887 53.5899Z" fill="#AE9273"/>
<path d="M21.1478 63.2158C23.2221 64.7033 25.389 65.4657 27.4578 65.4657C28.4034 65.4678 29.3419 65.3029 30.2302 64.9786C32.3709 64.1956 34.0834 62.5263 35.1824 60.1512C36.9406 56.3504 36.9117 51.1587 35.105 46.2619C33.6546 42.3306 31.2408 39.0071 28.3082 36.904C25.2804 34.7326 22.0553 34.1063 19.2258 35.1411C17.0851 35.9241 15.3725 37.5934 14.2736 39.9685C12.5154 43.7693 12.5444 48.9612 14.3511 53.8579C15.8015 57.7893 18.2153 61.1133 21.1478 63.2158ZM22.0031 36.2958C26.4016 36.2958 31.2427 40.5341 33.5658 46.8306C35.2249 51.3272 35.2726 56.0496 33.6934 59.4634C32.8847 61.2113 31.6973 62.4892 30.2374 63.1958L27.3722 59.1313C25.7262 56.8001 24.9776 53.9528 25.2641 51.1136L25.4175 49.6027C25.8099 45.7281 24.7725 41.8437 22.5008 38.6806L20.8633 36.3945C21.2396 36.3284 21.621 36.2951 22.0031 36.2952V36.2958ZM15.7626 40.6583C16.5722 38.9083 17.7614 37.6297 19.2233 36.9237L21.1672 39.6348C23.206 42.473 24.1371 45.9585 23.7852 49.4353L23.6318 50.9462C23.3055 54.1789 24.1575 57.4207 26.0313 60.0752L28.6029 63.7233C23.9272 64.554 18.4183 60.1412 15.8903 53.29C14.2311 48.7932 14.1833 44.0708 15.7626 40.6576V40.6583Z" fill="#AE9273"/>
</svg>
