<svg width="70" height="70" viewBox="0 0 70 70" fill="none" xmlns="http://www.w3.org/2000/svg">
<path d="M24.6187 2.1875V15.2872C24.6187 15.5048 24.7051 15.7134 24.8589 15.8673C25.0128 16.0211 25.2214 16.1075 25.439 16.1075C25.6565 16.1075 25.8652 16.0211 26.019 15.8673C26.1729 15.7134 26.2593 15.5048 26.2593 15.2872V2.1875C26.2593 1.96994 26.1729 1.76129 26.019 1.60745C25.8652 1.45361 25.6565 1.36719 25.439 1.36719C25.2214 1.36719 25.0128 1.45361 24.8589 1.60745C24.7051 1.76129 24.6187 1.96994 24.6187 2.1875Z" fill="#AE9273"/>
<path d="M31.6157 11.0112V15.2872C31.6157 15.5048 31.7021 15.7135 31.856 15.8673C32.0098 16.0211 32.2185 16.1076 32.436 16.1076C32.6536 16.1076 32.8622 16.0211 33.0161 15.8673C33.1699 15.7135 33.2563 15.5048 33.2563 15.2872V11.0112C33.2563 10.7937 33.1699 10.585 33.0161 10.4312C32.8622 10.2773 32.6536 10.1909 32.436 10.1909C32.2185 10.1909 32.0098 10.2773 31.856 10.4312C31.7021 10.585 31.6157 10.7937 31.6157 11.0112Z" fill="#AE9273"/>
<path d="M39.002 4.98584V15.2873C39.002 15.5049 39.0884 15.7135 39.2422 15.8674C39.3961 16.0212 39.6047 16.1076 39.8223 16.1076C40.0398 16.1076 40.2485 16.0212 40.4023 15.8674C40.5562 15.7135 40.6426 15.5049 40.6426 15.2873V4.98584C40.6426 4.76828 40.5562 4.55963 40.4023 4.40579C40.2485 4.25195 40.0398 4.16553 39.8223 4.16553C39.6047 4.16553 39.3961 4.25195 39.2422 4.40579C39.0884 4.55963 39.002 4.76828 39.002 4.98584Z" fill="#AE9273"/>
<path d="M56.1109 29.1096C53.8073 27.7793 51.1887 27.0923 48.5287 27.1204V19.9456C48.5287 19.728 48.4423 19.5194 48.2885 19.3655C48.1346 19.2117 47.926 19.1253 47.7084 19.1253H22.9936C22.7439 18.1084 22.1604 17.2048 21.3365 16.5587C20.5125 15.9126 19.4957 15.5615 18.4487 15.5615C17.4017 15.5615 16.3849 15.9126 15.5609 16.5587C14.737 17.2048 14.1535 18.1084 13.9037 19.1253H9.10615C8.88859 19.1253 8.67994 19.2117 8.5261 19.3655C8.37227 19.5194 8.28584 19.728 8.28584 19.9456V32.3099L6.67434 34.1959C6.47336 34.4302 6.47281 34.5019 6.46529 35.3798C6.46174 35.771 6.459 36.291 6.45668 36.8112C6.45203 37.8503 6.44971 38.8914 6.44971 38.9048V50.437C6.45063 50.9557 6.63573 51.4573 6.972 51.8523C7.30828 52.2472 7.77389 52.5099 8.28584 52.5936V65.0781C8.28689 66.0205 8.66174 66.9241 9.32814 67.5905C9.99455 68.2569 10.8981 68.6317 11.8405 68.6328H44.974C45.9165 68.6317 46.82 68.2569 47.4864 67.5905C48.1528 66.9241 48.5277 66.0205 48.5287 65.0781V62.0722L58.5912 53.0761C60.3441 51.5086 61.7003 49.5479 62.5485 47.3547C63.3968 45.1615 63.7128 42.7985 63.4708 40.4595C63.2288 38.1205 62.4356 35.8722 61.1563 33.8992C59.877 31.9262 58.1481 30.2846 56.1114 29.1093L56.1109 29.1096ZM18.4487 17.2023C19.0582 17.2031 19.6534 17.3867 20.1574 17.7296C20.6613 18.0724 21.0507 18.5586 21.2752 19.1253H15.6222C15.8467 18.5586 16.2361 18.0724 16.74 17.7296C17.244 17.3868 17.8392 17.2031 18.4487 17.2023ZM9.92647 20.7659H13.7683V29.9251H10.7536C10.6187 29.9249 10.4854 29.9541 10.3628 30.0106C10.2403 30.0671 10.1315 30.1496 10.044 30.2523L9.92647 30.3898V20.7659ZM8.09033 50.437V38.9053C8.09033 38.5298 8.0984 35.8946 8.10934 35.0419L11.0796 31.5657H17.8073L20.7774 35.0419C20.7884 35.8949 20.796 38.5298 20.7964 38.9048V50.437C20.7964 50.582 20.7388 50.7211 20.6362 50.8237C20.5337 50.9263 20.3946 50.9839 20.2495 50.9839H8.63721C8.49217 50.9839 8.35307 50.9263 8.25051 50.8237C8.14795 50.7211 8.09033 50.582 8.09033 50.437ZM46.8881 65.0781C46.8875 65.5855 46.6857 66.072 46.3269 66.4309C45.968 66.7897 45.4815 66.9916 44.974 66.9921H11.8405C11.3331 66.9916 10.8466 66.7897 10.4877 66.4309C10.1289 66.072 9.92704 65.5855 9.92647 65.0781V52.6245H20.2495C20.8295 52.6238 21.3855 52.3931 21.7956 51.983C22.2057 51.5729 22.4364 51.0169 22.437 50.437V38.9048C22.437 38.8911 22.4347 37.8508 22.4301 36.8112C22.4278 36.291 22.4249 35.771 22.4216 35.3799C22.4139 34.5037 22.4134 34.4319 22.2132 34.1969L18.8437 30.2532C18.7561 30.1502 18.6471 30.0675 18.5243 30.0109C18.4016 29.9542 18.2679 29.9249 18.1327 29.9251H15.4082V20.7659H46.8877L46.8881 65.0781ZM61.6438 44.6275C61.0823 47.4223 59.6269 49.9585 57.4972 51.8534L48.5285 59.8717V28.7609C50.5021 28.7387 52.4557 29.1583 54.2461 29.9889C56.0365 30.8196 57.6184 32.0403 58.8759 33.5616C60.1334 35.0829 61.0346 36.8662 61.5135 38.781C61.9925 40.6957 62.037 42.6934 61.6438 44.6275Z" fill="#AE9273"/>
<path d="M12.1626 34.7134H17.0139C17.2315 34.7134 17.4401 34.627 17.594 34.4731C17.7478 34.3193 17.8342 34.1106 17.8342 33.8931C17.8342 33.6755 17.7478 33.4669 17.594 33.313C17.4401 33.1592 17.2315 33.0728 17.0139 33.0728H12.1626C11.945 33.0728 11.7364 33.1592 11.5825 33.313C11.4287 33.4669 11.3423 33.6755 11.3423 33.8931C11.3423 34.1106 11.4287 34.3193 11.5825 34.4731C11.7364 34.627 11.945 34.7134 12.1626 34.7134Z" fill="#AE9273"/>
</svg>
