<svg width="70" height="70" viewBox="0 0 70 70" fill="none" xmlns="http://www.w3.org/2000/svg">
<path d="M13.043 68.6328H52.9512C54.9434 68.6322 56.8541 67.8413 58.2639 66.4337C59.6738 65.0261 60.4678 63.1167 60.4717 61.1245C60.4712 60.8277 60.353 60.5433 60.1431 60.3335C59.9332 60.1237 59.6487 60.0057 59.3519 60.0053H50.8344L52.3875 56.0581C52.4088 56.0072 52.4285 55.9558 52.4493 55.9048C53.6994 55.7998 54.9002 55.3688 55.9316 54.6547C57.2493 53.7236 57.9752 52.4553 57.9752 51.0835C57.9752 48.5149 55.9497 46.3836 53.3224 46.0268L53.2988 45.5984C53.3038 45.4688 53.2825 45.3395 53.2362 45.2183C53.1899 45.0971 53.1197 44.9865 53.0296 44.8932C52.9396 44.7998 52.8316 44.7255 52.7122 44.6749C52.5927 44.6243 52.4643 44.5983 52.3346 44.5985H39.5117C39.3802 44.5983 39.2499 44.625 39.1291 44.6771C39.0083 44.7291 38.8994 44.8054 38.8091 44.9011C38.7189 44.9969 38.6492 45.1101 38.6044 45.2337C38.5595 45.3574 38.5405 45.489 38.5484 45.6203L38.3322 50.2022L38.3314 50.2403C38.3339 52.3895 38.8297 54.5094 39.7806 56.4368L41.374 60.0052H32.8228V11.6387H39.3356L39.3389 20.0647C39.343 20.3604 39.4624 20.6428 39.6716 20.8518C39.8808 21.0608 40.1634 21.1798 40.459 21.1836L42.7752 21.1828L42.776 25.7735C42.7761 26.0703 42.8939 26.3549 43.1038 26.5648C43.3136 26.7747 43.5982 26.8926 43.8949 26.8927H43.8959H48.4092C48.7061 26.8924 48.9906 26.7743 49.2005 26.5645C49.4104 26.3546 49.5285 26.0701 49.529 25.7733L49.5281 21.1809L51.8442 21.1801C52.1411 21.18 52.4259 21.062 52.6359 20.8521C52.8459 20.6421 52.9639 20.3573 52.9639 20.0603L52.9606 11.6394H59.6518C59.9485 11.6391 60.2331 11.521 60.443 11.3112C60.6529 11.1014 60.771 10.8169 60.7715 10.5201C60.7715 8.37744 60.1128 6.1935 58.9642 4.52799C57.562 2.49416 55.5905 1.40137 53.2632 1.36719H53.2559L31.7004 1.43309H13.043C12.0324 1.43359 11.0632 1.83492 10.3481 2.54904C9.63305 3.26315 9.2304 4.23174 9.22852 5.24234V64.8234C9.23036 65.834 9.63299 66.8027 10.3481 67.5168C11.0632 68.231 12.0323 68.6323 13.043 68.6328ZM56.335 51.0835C56.335 52.5845 54.7602 53.7745 53.0358 54.158C53.4361 52.6602 53.5981 51.1087 53.5158 49.5605L53.4146 47.7081C55.0866 48.0688 56.335 49.4449 56.335 51.0835ZM41.2707 55.7529L41.2571 55.723C40.4166 54.0242 39.9769 52.1553 39.9719 50.26L40.1615 46.2391H51.6917L51.8781 49.6493C51.9831 51.6276 51.6394 53.6041 50.8728 55.4308L49.0722 60.0059H43.1694L41.2707 55.7529ZM49.628 61.6455H49.6308H49.6344H58.8082C58.6744 63.1066 57.9995 64.4649 56.916 65.454C55.8324 66.4432 54.4183 66.9918 52.9512 66.9922H32.8228V61.6465L49.628 61.6455ZM47.8882 25.252H44.4165V21.1821L47.8882 21.1809V25.252ZM51.323 19.5393L43.6069 19.5423C43.603 19.5423 43.5992 19.5423 43.5952 19.5423C43.5914 19.5423 43.5876 19.5423 43.5836 19.5423L40.9794 19.5433L40.9764 11.6391H51.3201L51.323 19.5393ZM57.6133 5.45863C58.4715 6.70277 59.0174 8.3676 59.1147 9.99769H52.1855C52.1705 9.99687 52.1557 9.99537 52.1406 9.99537C52.1254 9.99537 52.1108 9.99687 52.0959 9.99769H32.8228V3.07029L53.2459 3.00781C55.4829 3.04322 56.8559 4.35982 57.6133 5.45863ZM10.8691 5.24234C10.8705 4.66671 11.1002 4.11512 11.5077 3.70857C11.9152 3.30202 12.4673 3.07371 13.043 3.07371H31.1821V66.9922H13.043C12.4673 66.9922 11.9152 66.7639 11.5076 66.3573C11.1001 65.9507 10.8705 65.3991 10.8691 64.8234V5.24234Z" fill="#AE9273"/>
<path d="M20.6368 17.7051C21.6559 17.7036 22.6517 17.4001 23.4983 16.8328C24.345 16.2656 25.0045 15.4601 25.3935 14.5181C25.7824 13.5762 25.8835 12.5401 25.6838 11.5407C25.484 10.5414 24.9926 9.62364 24.2714 8.90354C23.5503 8.18343 22.6319 7.69327 21.6322 7.49499C20.6326 7.2967 19.5966 7.39921 18.6552 7.78954C17.7138 8.17987 16.9093 8.84051 16.3432 9.68797C15.7772 10.5354 15.4751 11.5317 15.4751 12.5508C15.4776 13.9183 16.0224 15.229 16.9901 16.1953C17.9578 17.1616 19.2692 17.7046 20.6368 17.7051ZM20.6368 9.03793C21.3314 9.03939 22.0101 9.24672 22.5869 9.63373C23.1638 10.0207 23.613 10.5701 23.8778 11.2123C24.1426 11.8545 24.2111 12.5608 24.0746 13.2419C23.9381 13.923 23.6028 14.5484 23.111 15.039C22.6193 15.5297 21.9931 15.8635 21.3117 15.9984C20.6302 16.1333 19.9241 16.0631 19.2825 15.7969C18.6409 15.5306 18.0926 15.0801 17.707 14.5023C17.3213 13.9246 17.1156 13.2454 17.1157 12.5508C17.1179 11.6184 17.4899 10.7249 18.15 10.0664C18.81 9.40788 19.7044 9.03792 20.6368 9.03793Z" fill="#AE9273"/>
</svg>
