<svg width="70" height="70" viewBox="0 0 70 70" fill="none" xmlns="http://www.w3.org/2000/svg">
<path d="M22.6924 46.8058H3.00781V27.9604C3.00781 27.7429 2.92139 27.5342 2.76755 27.3804C2.61371 27.2266 2.40506 27.1401 2.1875 27.1401C1.96994 27.1401 1.76129 27.2266 1.60745 27.3804C1.45361 27.5342 1.36719 27.7429 1.36719 27.9604V66.3751C1.36719 66.5927 1.45361 66.8013 1.60745 66.9552C1.76129 67.109 1.96994 67.1954 2.1875 67.1954C2.40506 67.1954 2.61371 67.109 2.76755 66.9552C2.92139 66.8013 3.00781 66.5927 3.00781 66.3751V48.4464H22.2707V66.3751C22.2707 66.5927 22.3571 66.8013 22.5109 66.9552C22.6648 67.109 22.8734 67.1954 23.091 67.1954C23.3085 67.1954 23.5172 67.109 23.671 66.9552C23.8249 66.8013 23.9113 66.5927 23.9113 66.3751V48.0241C23.9109 47.701 23.7823 47.3913 23.5538 47.1629C23.3253 46.9345 23.0155 46.8061 22.6924 46.8058Z" fill="#AE9273"/>
<path d="M67.8124 27.1401C67.5949 27.1401 67.3862 27.2266 67.2324 27.3804C67.0785 27.5342 66.9921 27.7429 66.9921 27.9604V46.8058H47.3075C46.9844 46.8061 46.6746 46.9345 46.4461 47.1629C46.2176 47.3913 46.0891 47.701 46.0886 48.0241V66.3751C46.0886 66.5927 46.1751 66.8013 46.3289 66.9552C46.4827 67.109 46.6914 67.1954 46.9089 67.1954C47.1265 67.1954 47.3351 67.109 47.489 66.9552C47.6428 66.8013 47.7292 66.5927 47.7292 66.3751V48.4464H66.9921V66.3751C66.9921 66.5927 67.0785 66.8013 67.2324 66.9552C67.3862 67.109 67.5949 67.1954 67.8124 67.1954C68.03 67.1954 68.2386 67.109 68.3925 66.9552C68.5463 66.8013 68.6327 66.5927 68.6327 66.3751V27.9604C68.6327 27.7429 68.5463 27.5342 68.3925 27.3804C68.2386 27.2266 68.03 27.1401 67.8124 27.1401Z" fill="#AE9273"/>
<path d="M38.8745 66.3455H36.4955V40.3217H51.9777C52.1953 40.3217 52.4039 40.2353 52.5578 40.0815C52.7116 39.9276 52.798 39.719 52.798 39.5014C52.798 39.2839 52.7116 39.0752 52.5578 38.9214C52.4039 38.7675 52.1953 38.6811 51.9777 38.6811H36.495V37.7241C36.4949 37.6926 36.493 37.6612 36.4893 37.63L36.5732 22.8865C37.7126 23.8709 39.3703 24.4669 41.1955 24.4093C43.0527 24.3508 44.7536 23.6388 45.8619 22.4559C46.0306 22.2762 46.1851 22.0837 46.3243 21.8803C47.418 23.2611 49.3887 24.1513 51.6024 24.0815C53.4596 24.0231 55.1605 23.3111 56.2688 22.1279C56.6573 21.7302 56.9632 21.2596 57.1689 20.7431C57.3745 20.2266 57.4759 19.6744 57.4671 19.1186C57.4882 18.9863 57.4866 18.8514 57.4623 18.7196C57.4569 18.6432 57.4463 18.4944 57.4445 18.4504C57.4434 18.4164 57.4402 18.3824 57.4348 18.3487C57.1492 13.8224 54.7468 9.66092 50.6347 6.59158C46.9597 3.84845 42.2949 2.26511 37.3226 2.04226C37.118 2.02471 36.9126 2.01804 36.7073 2.0223C36.2194 2.01155 35.7291 2.01355 35.2364 2.02832C28.6523 2.23586 22.5874 4.79797 18.5967 9.05744C15.7267 12.1206 14.1683 15.8894 14.1796 19.7133C14.1764 19.748 14.1753 19.7829 14.1765 19.8178L14.1874 20.141C14.1907 20.243 14.2131 20.3435 14.2535 20.4372C14.7279 22.7751 17.2777 24.4602 20.3575 24.3639C22.4689 24.2973 24.3087 23.3861 25.3408 22.0385C26.3583 23.4877 28.3098 24.457 30.5361 24.4569C30.6165 24.4569 30.6978 24.4555 30.7789 24.4529C32.3698 24.4029 33.8447 23.872 34.9319 22.9775L34.8425 38.6819H19.7286C19.5111 38.6819 19.3024 38.7684 19.1486 38.9222C18.9947 39.076 18.9083 39.2847 18.9083 39.5022C18.9083 39.7198 18.9947 39.9285 19.1486 40.0823C19.3024 40.2361 19.5111 40.3226 19.7286 40.3226H34.8544V66.3455H32.4755C32.2579 66.3455 32.0493 66.4319 31.8954 66.5857C31.7416 66.7396 31.6551 66.9482 31.6551 67.1658C31.6551 67.3833 31.7416 67.592 31.8954 67.7458C32.0493 67.8997 32.2579 67.9861 32.4755 67.9861H38.8749C39.0924 67.9861 39.3011 67.8997 39.4549 67.7458C39.6087 67.592 39.6952 67.3833 39.6952 67.1658C39.6952 66.9482 39.6087 66.7396 39.4549 66.5857C39.3011 66.4319 39.0924 66.3455 38.8749 66.3455H38.8745ZM44.6646 21.3341C43.864 22.1887 42.5478 22.7252 41.1438 22.7696C38.7257 22.8483 36.7113 21.5019 36.6532 19.7739C36.6511 19.6978 36.653 19.6217 36.6588 19.5458C36.6607 19.5177 36.6611 19.4895 36.6602 19.4613C36.6373 18.7851 36.6191 18.1285 36.6038 17.4878L36.6175 15.0269C36.618 14.921 36.598 14.816 36.5586 14.7177C36.5096 8.76759 36.7947 4.82162 37.111 3.67537C37.1481 3.67687 37.1853 3.6781 37.2223 3.67974C39.1294 3.86281 40.9844 5.37232 42.495 8.00129C44.1745 10.9241 45.1984 14.836 45.3992 19.0566C45.3895 19.1286 45.3895 19.2015 45.3992 19.2735C45.41 19.3488 45.417 19.4246 45.4201 19.5006C45.4479 20.3199 45.0246 20.9499 44.6646 21.3341ZM55.8157 18.8279C55.8173 18.8755 55.823 18.9229 55.8328 18.9695C55.8265 19.0371 55.8247 19.1049 55.8273 19.1727C55.8546 19.9918 55.4308 20.6219 55.0715 21.006C54.2709 21.8606 52.9547 22.3972 51.5507 22.4415C49.1333 22.5189 47.1182 21.1739 47.0601 19.4456C47.058 19.3694 47.0599 19.2932 47.0658 19.2173C47.0719 19.1238 47.062 19.03 47.0364 18.9399C46.8186 14.4779 45.7197 10.3195 43.9181 7.18426C43.3291 6.1338 42.604 5.16563 41.7617 4.30482C49.7059 6.17841 55.5826 11.9006 55.8157 18.8279ZM20.3064 22.7233C17.9401 22.7963 15.9433 21.4971 15.8213 19.8136C15.7773 16.3299 17.1475 13.0037 19.7944 10.1783C22.7125 7.06367 26.8491 4.92976 31.4888 4.07418C29.5491 5.41484 28.0861 6.92025 27.001 8.6805C25.256 11.5106 24.4688 15.1004 24.592 19.6437C24.5839 19.6756 24.5778 19.708 24.5737 19.7406C24.4212 21.3418 22.5468 22.6526 20.3064 22.7233ZM34.2482 21.3769C33.4474 22.2315 32.1312 22.7681 30.7274 22.8124C28.3144 22.8897 26.3041 21.5511 26.237 19.8287C26.237 19.8168 26.237 19.8026 26.237 19.7946C26.237 19.791 26.237 19.7875 26.2362 19.7838C26.0955 15.4802 26.8025 12.1294 28.3978 9.5417C29.847 7.19013 32.0883 5.3242 35.4347 3.67838C35.2718 4.49869 35.1162 5.85904 35.0136 8.17642C34.8988 10.7774 34.8823 14.0309 34.9636 17.4974L34.9486 20.1183C34.8297 20.592 34.5881 21.0261 34.2482 21.3769Z" fill="#AE9273"/>
</svg>
